<svg width="20" height="16" viewBox="0 0 20 16" fill="none" xmlns="http://www.w3.org/2000/svg">
<path d="M16.9307 1.74333C15.6557 1.16833 14.2891 0.743332 12.8599 0.501665C12.8472 0.499222 12.834 0.500796 12.8222 0.506171C12.8104 0.511546 12.8006 0.520455 12.7941 0.531665C12.6191 0.839165 12.4241 1.24 12.2874 1.55666C10.7717 1.3302 9.23067 1.3302 7.71491 1.55666C7.56269 1.20572 7.39104 0.863519 7.20075 0.531665C7.1943 0.520317 7.18454 0.511206 7.17278 0.505548C7.16101 0.49989 7.1478 0.497954 7.13491 0.499998C5.70658 0.741665 4.33991 1.16667 3.06408 1.7425C3.0531 1.7471 3.0438 1.75495 3.03741 1.765C0.444079 5.5775 -0.266754 9.29583 0.0824123 12.9675C0.0833839 12.9765 0.0861752 12.9852 0.0906163 12.9931C0.0950575 13.0009 0.101056 13.0078 0.108246 13.0133C1.62191 14.1154 3.31019 14.9548 5.10241 15.4967C5.11491 15.5005 5.12827 15.5005 5.14076 15.4966C5.15324 15.4928 5.16428 15.4852 5.17241 15.475C5.55807 14.9592 5.89983 14.412 6.19408 13.8392C6.19816 13.8313 6.20052 13.8227 6.20098 13.8139C6.20145 13.8051 6.20001 13.7963 6.19677 13.788C6.19353 13.7798 6.18856 13.7724 6.1822 13.7663C6.17584 13.7601 6.16824 13.7554 6.15991 13.7525C5.62158 13.5498 5.09998 13.3051 4.59991 13.0208C4.59093 13.0157 4.58335 13.0084 4.57788 12.9996C4.5724 12.9909 4.56918 12.9809 4.56852 12.9705C4.56786 12.9602 4.56978 12.9499 4.57409 12.9405C4.57841 12.9311 4.58499 12.9229 4.59325 12.9167C4.69825 12.8392 4.80325 12.7583 4.90325 12.6775C4.91225 12.6702 4.92309 12.6656 4.93457 12.6641C4.94604 12.6627 4.9577 12.6644 4.96825 12.6692C8.24075 14.1392 11.7849 14.1392 15.0191 12.6692C15.0297 12.6641 15.0414 12.6621 15.0531 12.6635C15.0647 12.6648 15.0757 12.6694 15.0849 12.6767C15.1849 12.7583 15.2891 12.8392 15.3949 12.9167C15.4033 12.9228 15.4099 12.9308 15.4144 12.9402C15.4188 12.9495 15.4209 12.9598 15.4204 12.9701C15.4199 12.9804 15.4169 12.9904 15.4116 12.9993C15.4062 13.0082 15.3988 13.0156 15.3899 13.0208C14.8916 13.3075 14.3732 13.55 13.8291 13.7517C13.8207 13.7547 13.8131 13.7595 13.8067 13.7657C13.8004 13.7719 13.7954 13.7794 13.7922 13.7877C13.789 13.796 13.7875 13.8048 13.788 13.8137C13.7885 13.8226 13.7908 13.8313 13.7949 13.8392C14.0949 14.4117 14.4382 14.9567 14.8157 15.4742C14.8236 15.4848 14.8345 15.4927 14.8471 15.4969C14.8596 15.5011 14.8731 15.5013 14.8857 15.4975C16.681 14.9572 18.3721 14.1173 19.8874 13.0133C19.8948 13.0082 19.901 13.0015 19.9056 12.9937C19.9102 12.986 19.9131 12.9773 19.9141 12.9683C20.3307 8.72333 19.2157 5.035 16.9566 1.76666C16.951 1.75604 16.9419 1.74776 16.9307 1.74333ZM6.68325 10.7317C5.69825 10.7317 4.88575 9.84083 4.88575 8.74833C4.88575 7.655 5.68241 6.765 6.68325 6.765C7.69158 6.765 8.49658 7.6625 8.48075 8.74833C8.48075 9.84166 7.68408 10.7317 6.68325 10.7317ZM13.3291 10.7317C12.3432 10.7317 11.5316 9.84083 11.5316 8.74833C11.5316 7.655 12.3274 6.765 13.3291 6.765C14.3374 6.765 15.1424 7.6625 15.1266 8.74833C15.1266 9.84166 14.3382 10.7317 13.3291 10.7317Z" fill="black"/>
</svg>
