<svg width="16" height="19" viewBox="0 0 16 19" fill="none" xmlns="http://www.w3.org/2000/svg">
<path d="M14.7633 3.91748C14.6956 3.82767 14.6233 3.74144 14.5467 3.65915C14.6238 3.45369 14.6823 3.24173 14.7217 3.02582C14.8377 2.23598 14.7369 1.42944 14.43 0.692485C14.43 0.692485 13.4967 0.400818 11.355 1.84249C10.4457 1.59143 9.50658 1.46528 8.56332 1.46749C7.61736 1.46583 6.67551 1.59197 5.76332 1.84249C3.62165 0.384152 2.68832 0.692485 2.68832 0.692485C2.38505 1.42164 2.28428 2.21915 2.39665 3.00082C2.43619 3.22571 2.4976 3.4462 2.57999 3.65915C2.50499 3.74249 2.42999 3.83415 2.36332 3.91748C1.74147 4.6975 1.41138 5.6701 1.42999 6.66749C1.42801 6.90403 1.43914 7.1405 1.46332 7.37582C1.72999 11.0675 4.18832 11.9258 6.52999 12.1925C6.19855 12.5007 5.97382 12.9064 5.88832 13.3508C5.81086 13.6472 5.77441 13.9528 5.77999 14.2592V15.3508C4.84749 15.4342 3.89082 15.2983 3.59415 14.4667C3.27569 13.6706 2.74755 12.9757 2.06582 12.4558C2.01599 12.4288 1.9686 12.3976 1.92415 12.3625C1.86429 12.2052 1.75823 12.0696 1.61991 11.9737C1.48159 11.8778 1.31748 11.8259 1.14915 11.825H1.14499C0.924692 11.825 0.713359 11.9122 0.557198 12.0676C0.401037 12.223 0.312754 12.4339 0.311652 12.6542C0.309152 13.3308 0.986652 13.7683 1.26415 13.9167C1.58836 14.2433 1.84916 14.6273 2.03332 15.0492C2.33665 15.9017 3.22415 17.1975 5.75499 17.0292L5.75665 17.1108L5.75999 17.3342C5.75999 17.5552 5.84778 17.7671 6.00406 17.9234C6.16034 18.0797 6.3723 18.1675 6.59332 18.1675H10.5217C10.7427 18.1675 10.9546 18.0797 11.1109 17.9234C11.2672 17.7671 11.355 17.5552 11.355 17.3342C11.355 17.3342 11.3617 14.7008 11.3617 14.2592C11.3672 13.9528 11.3308 13.6472 11.2533 13.3508L11.2517 13.3458L11.255 13.3508C11.2475 13.3217 11.2367 13.2983 11.2283 13.27C11.1355 12.8571 10.9206 12.4817 10.6117 12.1925L10.6217 12.21L10.605 12.1933C12.9467 11.9267 15.3883 11.0517 15.655 7.37665C15.6792 7.14134 15.6903 6.90486 15.6883 6.66832C15.7031 5.67291 15.3767 4.70244 14.7633 3.91832V3.91748Z" fill="black"/>
</svg>
