<svg width="20" height="20" viewBox="0 0 20 20" fill="none" xmlns="http://www.w3.org/2000/svg">
<path d="M8.54 18.52C13.2477 18.52 17.064 14.7037 17.064 9.996C17.064 5.28832 13.2477 1.472 8.54 1.472C3.83232 1.472 0.0160007 5.28832 0.0160007 9.996C0.0160007 14.7037 3.83232 18.52 8.54 18.52Z" fill="#2EB6EA"/>
<path d="M8.49205 18.52C0.0160407 18.52 -3.33196 7.364 4.15604 2.664C3.26404 11.984 8.00405 12.192 12.4 11.984C19.7681 11.644 19.7721 18.52 19.7721 18.52H8.49205Z" fill="#1542CD"/>
<path fill-rule="evenodd" clip-rule="evenodd" d="M16.596 12.784C15.312 16.072 12.16 18.42 8.444 18.524C8.532 18.528 8.62 18.528 8.708 18.528H19.916C19.916 18.528 19.912 14.5 16.596 12.784Z" fill="#745DDF"/>
</svg>
