<svg width="18" height="14" viewBox="0 0 18 14" fill="none" xmlns="http://www.w3.org/2000/svg">
<path d="M2.64329 3.05334C2.6535 2.9519 2.63983 2.84947 2.60336 2.75426C2.5669 2.65904 2.50865 2.57368 2.43329 2.50501L0.876626 0.615844V0.333344H5.70829L9.44329 8.58751L12.7266 0.333344H17.3333V0.615844L16.0025 1.90001C15.9461 1.94355 15.9026 2.00159 15.8766 2.06793C15.8506 2.13427 15.8431 2.20642 15.855 2.27668V11.7217C15.8431 11.7919 15.8506 11.8641 15.8766 11.9304C15.9026 11.9968 15.9461 12.0548 16.0025 12.0983L17.3025 13.3833V13.6667H10.7658V13.3842L12.1125 12.0675C12.245 11.9342 12.245 11.895 12.245 11.6917V4.05668L8.50163 13.635H7.99663L3.63829 4.05668V10.4767C3.60246 10.7458 3.69163 11.0183 3.87996 11.2133L5.63079 13.3533V13.635H0.666626V13.3533L2.41663 11.2133C2.50922 11.1167 2.57794 10.9998 2.6173 10.8719C2.65665 10.744 2.66555 10.6086 2.64329 10.4767V3.05334Z" fill="black"/>
</svg>
