<svg width="20" height="16" viewBox="0 0 20 16" fill="none" xmlns="http://www.w3.org/2000/svg">
<path d="M19.7026 2.11415C19.0067 2.42248 18.2592 2.63082 17.4734 2.72498C18.2842 2.23981 18.8908 1.4762 19.1801 0.576649C18.4183 1.02914 17.5845 1.34765 16.7151 1.51832C16.1304 0.894037 15.3559 0.480255 14.512 0.341211C13.668 0.202168 12.8018 0.345642 12.0477 0.74936C11.2937 1.15308 10.694 1.79445 10.3418 2.5739C9.98966 3.35335 9.90466 4.22727 10.1001 5.05998C8.55646 4.98248 7.04641 4.58127 5.6679 3.8824C4.2894 3.18353 3.07325 2.20262 2.09838 1.00332C1.76505 1.57832 1.57338 2.24498 1.57338 2.95498C1.57301 3.59415 1.73041 4.22352 2.03162 4.78726C2.33282 5.351 2.76852 5.83168 3.30005 6.18665C2.68361 6.16703 2.08078 6.00047 1.54172 5.70082V5.75082C1.54166 6.64727 1.85174 7.51613 2.41937 8.20998C2.98699 8.90383 3.77719 9.37992 4.65588 9.55748C4.08404 9.71225 3.4845 9.73504 2.90255 9.62415C3.15047 10.3955 3.63338 11.07 4.28369 11.5533C4.934 12.0365 5.71915 12.3043 6.52922 12.3191C5.15408 13.3987 3.45579 13.9842 1.70755 13.9816C1.39787 13.9817 1.08845 13.9636 0.780884 13.9275C2.55545 15.0685 4.62117 15.674 6.73088 15.6716C13.8726 15.6716 17.7767 9.75665 17.7767 4.62665C17.7767 4.45998 17.7726 4.29165 17.7651 4.12498C18.5245 3.57579 19.18 2.89573 19.7009 2.11665L19.7026 2.11415Z" fill="black"/>
</svg>
